<?xml version="1.0" encoding="utf-8"?>
<!-- Generator: Adobe Illustrator 26.0.2, SVG Export Plug-In . SVG Version: 6.00 Build 0)  -->
<svg version="1.1" id="Layer_1" xmlns="http://www.w3.org/2000/svg" xmlns:xlink="http://www.w3.org/1999/xlink" x="0px" y="0px"
	 viewBox="0 0 1502 1502" style="enable-background:new 0 0 1502 1502;" xml:space="preserve">
<style type="text/css">
	.st0{fill:#FFFFFF;}
</style>
<g>
	<path class="st0" d="M1102.6,839.8C837.4,829.9,643.9,611,665.5,346.4c6.7-82.1,35.9-155,82.7-221.8c19.3-27.6,23.4-56.7,6.4-86.3
		C738.2,10,712.1-0.9,680,2.6c-15.9,1.7-31.7,4.2-47.5,6.7C228.1,72.9-54.6,460.4,10.3,862.3c55.5,344.1,325,598.2,672.2,633.9
		c401.9,41.3,768.1-252.4,816.9-655.2c4.4-36.2,2.2-70.5-33-91.6c-34.3-20.6-65.5-10.9-96.4,10.8
		C1289.9,816.3,1200.2,841.8,1102.6,839.8z"/>
	<path d="M1102.6,839.8c97.6,2,187.3-23.5,267.3-79.6c31-21.7,62.2-31.4,96.4-10.8c35.2,21.2,37.4,55.4,33,91.6
		c-48.8,402.7-415,696.4-816.9,655.2c-347.1-35.6-616.7-289.8-672.2-633.9C-54.6,460.4,228.1,72.9,632.5,9.3
		c15.8-2.5,31.6-5,47.5-6.7c32.1-3.5,58.3,7.4,74.6,35.8c17,29.6,13,58.7-6.4,86.3c-46.8,66.7-76,139.7-82.7,221.8
		C643.9,611,837.4,829.9,1102.6,839.8z M1314.9,957.1c-238.8,69.4-450.8,28.9-624.6-144.9c-174.6-174.6-214-388.1-144.6-624.7
		c-202.3,65.7-423.8,294.5-390.9,629.3c27.1,275.3,264.1,508.7,535.9,532.1C1036.2,1378.6,1257.5,1143.7,1314.9,957.1z"/>
	<path class="st0" d="M1314.9,957.1c-57.4,186.6-278.7,421.5-624.2,391.8c-271.8-23.4-508.8-256.8-535.9-532.1
		c-32.9-334.8,188.6-563.6,390.9-629.3c-69.4,236.6-30,450.1,144.6,624.7C864.1,986,1076.2,1026.5,1314.9,957.1z"/>
</g>
</svg>
