<?xml version="1.0" encoding="utf-8"?>
<!-- Generator: Adobe Illustrator 26.0.2, SVG Export Plug-In . SVG Version: 6.00 Build 0)  -->
<svg version="1.1" id="Layer_1" xmlns="http://www.w3.org/2000/svg" xmlns:xlink="http://www.w3.org/1999/xlink" x="0px" y="0px"
	 viewBox="0 0 1502 1502" style="enable-background:new 0 0 1502 1502;" xml:space="preserve">
<style type="text/css">
	.st0{fill:#FFFFFF;}
</style>
<g>
	<path class="st0" d="M744.4,1501c-3.1-0.7-6.2-1.3-9.2-2.1c-27.4-7.3-46.4-31.1-46.5-59.4c-0.3-42.2-0.3-84.4,0-126.7
		c0.2-32.6,26.1-60,57.4-61.6c34.6-1.8,62.9,21.4,67,55c0.3,2.5,0.3,5.1,0.3,7.7c0,41.4,0.1,82.7,0,124.1
		c-0.1,29.5-18.8,53.6-46.9,61c-2.9,0.8-5.9,1.3-8.9,2C753.2,1501,748.8,1501,744.4,1501z"/>
	<path class="st0" d="M757.6,1c6.8,2.1,14.1,3.2,20.4,6.4c22,10.9,34.7,29.1,35.1,53.7c0.7,43.3,0.6,86.6,0.1,129.9
		c-0.4,31.2-26.4,58-56.9,59.8c-33.5,2-62-20.2-66.9-52.1c-0.6-4.1-0.8-8.3-0.8-12.4c-0.1-40,0.4-80.1-0.2-120.1
		C687.9,31.6,713,5.1,743.1,1.5c0.5-0.1,0.9-0.4,1.3-0.5C748.8,1,753.2,1,757.6,1z"/>
	<path class="st0" d="M1,744.4c0.7-3.1,1.3-6.2,2.1-9.2c7-26.9,30.6-46.2,58.3-46.5c43.1-0.5,86.1-0.5,129.2,0
		c31.6,0.4,58.3,26.3,60.1,56.9c1.9,33.7-20.1,61.9-52.5,66.9c-3.8,0.6-7.8,0.8-11.7,0.8c-40,0.1-80.1-0.5-120.1,0.2
		c-35.5,0.6-61.7-25.3-65-54.7c-0.1-0.5-0.4-0.9-0.5-1.3C1,753.2,1,748.8,1,744.4z"/>
	<path class="st0" d="M1501,757.6c-0.6,2.6-1.1,5.2-1.7,7.8c-6.5,27.4-30.5,47.6-58.8,47.9c-43.1,0.5-86.1,0.5-129.2,0
		c-31.6-0.4-58.4-26.3-60.1-56.9c-1.9-33.7,20.1-61.9,52.5-66.9c3.8-0.6,7.8-0.8,11.7-0.8c40.1-0.1,80.3,0.4,120.4-0.2
		c35.2-0.5,61.3,25.2,64.6,54.7c0.1,0.5,0.4,0.9,0.5,1.3C1501,748.8,1501,753.2,1501,757.6z"/>
	<path class="st0" d="M376,750.7c0.2-207.1,168.2-374.9,375.2-374.7c207.2,0.2,375.3,168.4,374.8,375.4
		c-0.4,207.2-168.5,374.9-375.3,374.6C543.5,1125.7,375.8,957.7,376,750.7z M501.1,750.8c-0.2,138.1,111.5,250,249.8,250.2
		c138,0.2,249.7-111.3,250.1-249.5c0.4-138-111.2-250-249.6-250.3C613.3,500.7,501.3,612.5,501.1,750.8z"/>
	<path class="st0" d="M416,353.5c0,25.2-15,48.3-38.6,57.6c-24.8,9.8-47.9,5.8-67.1-12.7c-30.5-29.5-60.5-59.6-90.1-90
		c-17.9-18.4-22.8-40.7-14-64.9c8.7-24.1,26.8-37.7,52-40.8c18.8-2.3,35.8,3.3,49.3,16.7c30.6,30.1,60.9,60.6,91.2,91.1
		C410.4,322.3,415.7,337,416,353.5z"/>
	<path class="st0" d="M416,1148.6c-0.3,16.5-5.7,31.2-17.4,43c-30.1,30.4-60.3,60.8-90.9,90.8c-23.9,23.5-63.1,22.9-86.9-0.7
		c-24-23.9-25.3-62.7-1.8-86.8c30.3-31.1,60.8-62.1,92.2-92.1c19.1-18.3,42.5-21.6,66.9-11.6C401.4,1100.8,416.1,1123.7,416,1148.6z
		"/>
	<path class="st0" d="M1299.7,264.8c-0.2,16.5-5.6,31.1-17.3,42.9c-30.2,30.5-60.5,61-91.1,91.1c-18.3,18.1-46.6,22.1-69.9,10.9
		s-37.3-35.6-35.1-61.2c1.3-15.3,7.3-28.5,18.1-39.3c29.5-29.6,58.8-59.2,88.6-88.5c18.4-18.1,40.7-23.3,65.1-14.8
		c24.3,8.6,37.7,26.7,41.3,52.1C1299.7,260.3,1299.6,262.5,1299.7,264.8z"/>
	<path class="st0" d="M1146.3,1085.9c18.7,0.4,33.4,5.7,45.2,17.3c30.4,30,60.8,60.1,90.5,90.7c17.8,18.3,22.4,40.7,13.8,64.6
		c-8.7,24-26.8,37.7-52.1,40.8c-18.8,2.2-35.7-3.4-49.3-16.7c-30.6-30.1-61.2-60.3-91-91.2c-18.6-19.3-22.6-42.8-12.1-67.4
		C1101.8,1099.2,1121.8,1087.3,1146.3,1085.9z"/>
</g>
</svg>
