<?xml version="1.0" encoding="utf-8"?>
<!-- Generator: Adobe Illustrator 26.0.2, SVG Export Plug-In . SVG Version: 6.00 Build 0)  -->
<svg version="1.1" id="Layer_1" xmlns="http://www.w3.org/2000/svg" xmlns:xlink="http://www.w3.org/1999/xlink" x="0px" y="0px"
	 viewBox="0 0 1500 1462" style="enable-background:new 0 0 1500 1462;" xml:space="preserve">
<style type="text/css">
	.st0{fill:none;stroke:#FFFFFF;stroke-width:10;stroke-miterlimit:10;}
	.st1{fill:#FFFFFF;}
</style>
<path class="st0" d="M1499,1461.3c-499.3,0-998.6,0-1498,0C1,974.5,1,487.6,1,0.7c499.3,0,998.6,0,1498,0
	C1499,487.5,1499,974.4,1499,1461.3z M750.1,1399.5c225.7,0,451.4,0,677,0c2.1,0,4.5,0.5,6.4-0.2c1.5-0.5,3-2.3,3.7-3.8
	c0.6-1.5,0.2-3.5,0.2-5.2c0-439.4,0-878.9,0-1318.3c0-1.8,0.5-3.8-0.2-5.2c-0.8-1.7-2.4-3.3-4-4.1c-1.4-0.7-3.4-0.2-5.2-0.2
	c-452.1,0-904.3,0-1356.4,0c-1.6,0-3.4-0.5-4.6,0.1c-1.6,0.9-3.2,2.5-4,4.2c-0.7,1.5-0.2,3.4-0.2,5.2c0,439.4,0,878.9,0,1318.3
	c0,9.2,0,9.2,9.1,9.2C298,1399.5,524,1399.5,750.1,1399.5z"/>
<path class="st1" d="M750.1,1399.5c-226.1,0-452.1,0-678.2,0c-9.1,0-9.1,0-9.1-9.2c0-439.4,0-878.9,0-1318.3c0-1.8-0.5-3.7,0.2-5.2
	c0.8-1.7,2.4-3.3,4-4.2c1.2-0.7,3.1-0.1,4.6-0.1c452.1,0,904.3,0,1356.4,0c1.8,0,3.8-0.5,5.2,0.2c1.7,0.8,3.3,2.4,4,4.1
	c0.7,1.4,0.2,3.4,0.2,5.2c0,439.4,0,878.9,0,1318.3c0,1.8,0.5,3.7-0.2,5.2c-0.7,1.6-2.2,3.3-3.7,3.8c-1.9,0.7-4.2,0.2-6.4,0.2
	C1201.5,1399.5,975.8,1399.5,750.1,1399.5z M619.1,334.1c-20.3,0-40.6,0-60.8,0c-9.1,0-9.2,0.6-9.9,9.5c-1.2,14.3-1.4,29-5.1,42.8
	c-13.6,50.8-28.3,101.2-42.8,151.8c-44.7,156.7-89.5,313.4-134.3,470.1c-3,10.5-1.5,12.4,9.4,12.4c27.5,0,55,0,82.5,0
	c11,0,11.4-0.5,14.2-11.2c15.4-58.8,30.9-117.5,46.2-176.3c1.3-5,3.6-6.4,8.5-6.3c62.4,0.1,124.8,0.2,187.2,0c5.6,0,7.7,1.9,9.1,7.1
	c15.8,58.7,31.8,117.3,47.8,175.9c2.7,10,3.8,10.8,14.1,10.9c31.6,0,63.2,0,94.8,0c9.3,0,10.6-1.9,8-10.9
	c-10.7-36.4-21.3-72.9-32-109.3c-54.9-186-109.8-372-164.5-558.1c-1.8-6.2-4.7-8.5-11-8.4C660.1,334.3,639.6,334.1,619.1,334.1z
	 M983.3,766.1C983.3,766.1,983.4,766.1,983.3,766.1c0.1,80.9,0.1,161.8,0.1,242.8c0,10,1.6,11.6,11.4,11.8c1,0,1.9,0,2.9,0
	c27.9,0,55.8,0,83.7,0c12.8,0,13.5-0.7,13.5-13.6c0-159.7,0-319.4,0-479.1c0-1,0-1.9,0-2.9c-0.1-9.2-1.4-10.6-10.4-10.6
	c-14,0-28.1,0-42.1,0c-17,0-33.9,0-50.9,0c-4.8,0-8.2,1-8.2,7.1C983.3,603.1,983.3,684.6,983.3,766.1z M976.1,380.1
	c0.7,39.3,23.7,62.7,62.5,62.3c39.6-0.4,63-23,63.4-63c0.3-37.7-25.9-63.1-63.5-62.6C1001,317.3,975.7,343,976.1,380.1z"/>
<path class="st1" d="M695.1,726.8c-49.9,0-99.1,0-149.2,0c25.9-98,53.1-194.8,73.9-293.6C644.8,530.7,669.8,628.2,695.1,726.8z"/>
</svg>
