<?xml version="1.0" encoding="utf-8"?>
<!-- Generator: Adobe Illustrator 26.0.2, SVG Export Plug-In . SVG Version: 6.00 Build 0)  -->
<svg version="1.1" id="Layer_1" xmlns="http://www.w3.org/2000/svg" xmlns:xlink="http://www.w3.org/1999/xlink" x="0px" y="0px"
	 viewBox="0 0 1146 1300" style="enable-background:new 0 0 1146 1300;" xml:space="preserve">
<g>
	<path d="M1135.4,1H11.1C9,1,6.8,1.1,4.6,1C1.7,0.9,0.9,2.3,1.2,5c0.4,3.9,0.6,7.8,0.9,11.6C4.5,44.2,7,71.7,9.5,99.2
		c1.9,21.1,3.7,42.1,5.6,63.2c2.4,27.1,4.9,54.2,7.3,81.3c1.9,21.3,3.7,42.6,5.6,63.9c2.4,27.3,4.9,54.6,7.3,81.9
		c1.9,21.3,3.8,42.6,5.7,63.9c2.4,27.1,4.9,54.2,7.3,81.3c1.9,21.3,3.7,42.6,5.6,63.9c2.4,26.9,4.9,53.7,7.3,80.6
		c1.9,21.5,3.8,43,5.7,64.5c2.4,27.5,4.9,55.1,7.4,82.6c1.9,21.1,3.7,42.2,5.6,63.2c2.4,27.1,4.9,54.2,7.3,81.3
		c1.9,21.3,3.7,42.6,5.6,63.9c2.4,27.1,4.9,54.2,7.3,81.3c1.4,16.1,2.8,32.3,4.2,48.4c0.5,5.5,0.6,5.5,5.8,7
		c0.8,0.2,1.6,0.5,2.5,0.7c151.1,42,302.2,83.9,453.2,125.9c4.3,1.2,8.3,1.3,12.6,0.1c151.5-42.2,303-84.2,454.5-126.3
		c8.1-2.3,8.1-2.3,8.8-10.7c0.1-1.1,0.1-2.2,0.2-3.2c1.5-16.6,2.9-33.1,4.4-49.7c2.4-26.9,4.8-53.8,7.2-80.6
		c1.9-21.5,3.8-43,5.7-64.5c2.4-27.1,4.9-54.2,7.3-81.3c1.9-21.3,3.7-42.6,5.7-63.9c2.4-27.1,4.9-54.2,7.3-81.3
		c1.9-21.3,3.7-42.6,5.7-63.9c2.4-27.1,4.9-54.2,7.3-81.3c1.9-21.3,3.8-42.6,5.7-63.9c2.4-27.3,4.9-54.6,7.3-81.9
		c1.9-21.1,3.7-42.2,5.6-63.2c2.4-27.3,4.9-54.6,7.3-81.9c1.9-21.1,3.7-42.2,5.6-63.2c2.4-27.3,4.9-54.6,7.3-81.9
		c1.9-21.1,3.7-42.2,5.6-63.2c2.4-27.3,5-54.6,7.3-81.9C1145,0.5,1147,1,1135.4,1z M930.5,248.4c-2.4,27.3-4.9,54.6-7.3,81.9
		c-1.9,21.1-3.7,42.2-5.6,63.2c-2.5,27.5-4.9,55-7.4,82.6c-1.9,20.9-3.7,41.7-5.6,62.6c-2.4,27.3-4.9,54.6-7.4,81.9
		c-2.3,26.2-4.6,52.5-7,78.7c-2.4,26.9-4.8,53.8-7.2,80.6c-1.9,21.1-3.7,42.2-5.6,63.2c-2.5,27.5-5,55-7.4,82.6
		c-1.1,12.3-2.1,24.5-3.1,36.8c-0.6,7.5-0.6,7.6-7.6,9.5c-93.7,26-187.4,52-281.1,78c-1.7,0.5-3.4,0.7-5.1,1.1c0,0.3,0,0.6-0.1,0.8
		c-96-26.7-192-53.4-287.9-80.2c-5.9-1.6-6-1.6-6.6-7.5c-1.6-17.2-3.1-34.4-4.7-51.6c-2.4-27.1-4.9-54.2-7.3-81.3
		c-1.9-21.5-3.8-43-5.7-64.5c-0.5-6-0.9-12.1-1.5-18.1c-0.3-2.8,0.8-4,3.6-3.9c1.3,0.1,2.6,0,3.9,0h128.2c0.9,0,1.7,0,2.6,0
		c5.1,0.1,5.2,0.1,5.6,4.9c1,10.8,1.8,21.5,2.8,32.3c2.2,24.5,4.5,49,6.4,73.6c0.3,3.9,2.7,4.4,5.4,5.1c21,5.7,42,11.4,63.1,17.1
		c28.7,7.8,57.5,15.5,86.2,23.3c1.9,0.5,3.8,0.8,5.7,1.2c0.1,0.2,0.2,0.4,0.3,0.6c21.5-7,43.5-12.2,65.3-18.2
		c29.3-8.1,58.7-15.9,88-23.8c5.8-1.6,5.9-1.6,6.4-7.6c2.1-22.8,4.1-45.6,6.2-68.4c2.4-26.6,4.9-53.3,7.3-80
		c0.8-9.2,1.5-18.5,2.5-27.7c0.3-3-0.7-3.9-3.5-3.8c-1.7,0.1-3.5,0-5.2,0c-53.1,0-106.2,0-159.3,0c-2.6,0-5.2-0.2-7.8-0.3l0.1,0.6
		c-2.8-0.1-5.6-0.3-8.4-0.3c-101.4,0-202.9,0-304.4,0c-8,0-7.8,1.5-8.6-7.9c-2.3-26.9-4.8-53.8-7.2-80.6
		c-1.4-15.9-2.9-31.8-4.2-47.7c-0.6-7.8-0.9-7.2,7.1-7.2c17.3,0,34.5,0,51.8,0c88.5,0,177,0,265.5,0c2.8,0,5.6-0.2,8.4-0.4
		c0,0.3,0,0.5-0.1,0.8c2.6-0.1,5.2-0.3,7.7-0.3c57.6,0,115.3,0,172.9,0c7.5,0,7.7,1.7,8.6-8c2.3-27.5,4.9-55,7.3-82.6
		c1.5-16.6,3-33.1,4.3-49.7c0.5-6.4,0.4-6.5-5.9-6.5c-26.1,0-52.2,0-78.4,0c-37.3,0-74.7,0-112,0c-1.5,0-3-0.2-4.5-0.3l0.1,0.6
		c-2.8-0.1-5.6-0.3-8.4-0.3c-109.7,0-219.3,0-329,0c-9.2,0-9,0-9.8-9.5c-2.8-31.8-5.8-63.6-8.7-95.5c-1-11-2-21.9-2.9-32.9
		c-0.4-5.1-0.3-5.1,4.6-5.3c1.9,0,3.9,0,5.8,0c113.1,0,226.2,0,339.3,0c3,0,6-0.2,9-0.3c0.1,0.2,0.1,0.4,0,0.6
		c2.4-0.1,4.7-0.3,7.1-0.3c114.2,0,228.4,0,342.6,0C931.1,240.2,931.2,240.2,930.5,248.4z"/>
</g>
</svg>
