<?xml version="1.0" encoding="utf-8"?>
<!-- Generator: Adobe Illustrator 26.0.2, SVG Export Plug-In . SVG Version: 6.00 Build 0)  -->
<svg version="1.1" id="Layer_1" xmlns="http://www.w3.org/2000/svg" xmlns:xlink="http://www.w3.org/1999/xlink" x="0px" y="0px"
	 viewBox="0 0 1500 1130" style="enable-background:new 0 0 1500 1130;" xml:space="preserve">
<style type="text/css">
	.st0{fill:#FFFFFF;}
</style>
<path class="st0" d="M1499,86.4c0,319.1,0,638.2,0,957.3c-0.1-0.1-0.3-0.3-0.4-0.4s-0.4-0.2-0.4-0.2c-2.2,3.1-2.1,7-3.2,10.4
	c-12.5,38.4-38.1,62.8-77.2,73.1c-1.5,0.4-4.3-0.8-4.1,2.6c-442.4,0-884.8,0-1327.1,0c0.1-0.1,0.3-0.2,0.4-0.4
	c0.1-0.1,0.3-0.4,0.2-0.4c-2.8-2.4-6.6-2-9.9-3.1c-38.8-12.3-63.3-38.1-73.7-77.4c-0.4-1.5,0.8-4.3-2.5-4.2C1,724.5,1,405.5,1,86.4
	c0.1,0.1,0.3,0.3,0.4,0.4s0.3,0.1,0.4,0.2c0.5-1,1.1-2,1.4-3.1C14,40.9,40.8,13.8,84,3.2c1.1-0.3,1.1-0.3,2.4-2.3
	c442.4,0,884.8,0,1327.1,0c-0.1,0.1-0.3,0.3-0.4,0.4s-0.2,0.3-0.2,0.4c1,0.5,2,1.1,3.1,1.4c43.1,10.7,70,37.7,80.8,80.7
	C1497,84.9,1496.3,87.4,1499,86.4z M1365.6,81.6c-2.5-3.9-6.4-2.2-9.6-2.2c-401.3-0.1-802.7-0.1-1204-0.1c-1.8,0-3.5,0-5.3,0
	c-1,0-1.9,0.3-2,1.6c0.2,2.5,2.4,3.4,4,4.8c15.6,13.9,31.2,27.7,46.8,41.5c185.2,164,370.4,328,555.6,492.1c2.8,2.5,4.4,3,7.5,0.2
	c26.1-23.4,52.5-46.6,78.7-69.9c124.6-110.4,249.3-220.7,373.9-331.1C1262.7,172.9,1314.1,127.3,1365.6,81.6z M132.4,1048.1
	c412.2,0,827.3,0,1242.5,0c0.3-0.4,0.5-0.8,0.8-1.2c-1.1-0.7-2.4-1.3-3.4-2.2c-151.4-150.5-302.9-301.1-454.2-451.8
	c-3.3-3.3-5-2.9-8.3-0.1c-50.3,44.7-100.7,89.2-151,133.9c-2.8,2.5-4.4,3.4-7.9,0.3c-50.9-45.4-102.2-90.5-153.1-136
	c-4.5-4-6.6-3.4-10.5,0.5c-94.6,94.3-189.6,188.2-284,282.8C245.6,932.2,188.6,991,132.4,1048.1z M81.9,980.4
	c0.9-0.7,1.3-0.9,1.5-1.1c148.5-147.7,297-295.4,445.6-442.9c3.5-3.5,1.7-4.7-0.8-6.9C382.6,400.6,237.1,271.7,91.5,142.9
	c-3-2.7-6-5.3-9.7-8.4C81.9,416.8,81.9,698.3,81.9,980.4z M1416.7,976.2c0.4-0.4,0.9-0.8,1.3-1.1c0-277,0-554,0-832.1
	c-8,7-15.2,13.4-22.5,19.8C1257,285.5,1118.4,408.2,979.8,530.7c-4.6,4.1-4.2,5.9-0.1,9.9c138.9,138,277.8,276.1,416.6,414.2
	C1403.3,961.8,1409.9,969.1,1416.7,976.2z"/>
</svg>
