<?xml version="1.0" encoding="utf-8"?>
<!-- Generator: Adobe Illustrator 26.0.2, SVG Export Plug-In . SVG Version: 6.00 Build 0)  -->
<svg version="1.1" id="Layer_1" xmlns="http://www.w3.org/2000/svg" xmlns:xlink="http://www.w3.org/1999/xlink" x="0px" y="0px"
	 viewBox="0 0 1500 1462" style="enable-background:new 0 0 1500 1462;" xml:space="preserve">
<style type="text/css">
	.st0{fill:none;stroke:#000000;stroke-width:10;stroke-miterlimit:10;}
</style>
<path class="st0" d="M1,0.7v1460.6h1498V0.7H1z M1437.4,72v1318.3c0,1.7,0.4,3.7-0.2,5.2c-0.6,1.3-1.8,2.8-3.1,3.6
	c-0.2,0.1-0.4,0.2-0.6,0.2c-1.9,0.7-4.2,0.2-6.4,0.2H71.9c-9.1,0-9.1,0-9.1-9.2V72c0-1.8-0.5-3.7,0.2-5.2c0.8-1.7,2.4-3.3,4-4.2
	c1.1-0.5,2.7-0.2,4.1-0.1c0.2,0,0.3,0,0.5,0H1428c1.8,0,3.8-0.5,5.2,0.2c1.6,0.8,3.2,2.4,4,4.1C1437.9,68.2,1437.4,70.2,1437.4,72z"
	/>
<g>
	<path d="M69.7,57.6h1360.6c6.8,0,12.2,5.5,12.2,12.2v1322.5c0,6.8-5.5,12.2-12.2,12.2H69.7c-6.8,0-12.2-5.5-12.2-12.2V69.8
		C57.5,63.1,62.9,57.6,69.7,57.6z M472.1,786.6c0-6.4,5-11.8,11.4-12.2c0,0,0.1,0,0.1,0c41.3-2.8,83.6-1,123.7-9.3
		C689.8,748,749.7,700.8,771,615.8c7.2-28.7,9.5-59.7,8-89.3c-5.5-105.1-65.9-173.1-169.6-191.2c-78.2-13.7-157.1-5.2-235.7-3.4
		c-11.8,0.3-13.4,8.1-13.4,18.1c0.2,219.4,0.2,438.9-0.1,658.3c0,11.3,3.5,15.7,15,15.5c25.1-0.5,50.3-0.1,75.5-0.2
		c21.5,0,21.5,0,21.5-21.6C472.1,930.7,472.1,859.4,472.1,786.6z M859.3,905.9c-8.2-4.4-18.1,1.5-18.1,10.8
		c0.2,24.9,0.4,47.6-0.4,70.3c-0.5,14.4,4.9,22.1,18,26.9c60.1,22.3,121.4,28,183.6,11.7c58.5-15.4,99-51.1,110.9-112.5
		c12.2-62.9-5.1-116.2-58.6-154.4c-19.5-13.9-40.8-25.3-61.5-37.5c-18.3-10.8-37.4-20.5-55.3-32c-18.6-12-33.7-27.2-28.3-52.4
		c4.4-20.4,22.4-33.3,50.8-37c6.5-0.8,13.1-1,19.6-0.8c34.9,1.1,68.4,7.9,99.2,25c10.1,5.6,15.4,4.3,15.3-8.3
		c-0.1-26.3,0.8-52.6-0.7-78.8c-0.3-6.2-7.3-15.6-13.1-17.3c-66-19.7-132.5-25.5-197.1,4c-93,42.6-112.8,167.1-37,235.7
		c21.5,19.5,48.6,33,73.5,48.7c20.7,13.1,42.6,24.5,62.7,38.6c17.6,12.3,27.5,29.8,21.6,52.6c-6,23-23.8,31.8-44.9,35
		c-48.9,7.3-94.4-4.2-137.5-27C861.2,906.9,860.2,906.4,859.3,905.9z"/>
	<path d="M474.3,440.2c0-7,5.8-12.6,12.8-12.2c32.3,1.6,64.3,1.5,95.2,7.2c50.1,9.3,79.4,45.5,83.4,96.4c1.3,16.2,1,33-1.7,49
		c-9,53.6-44.1,84.7-106.4,92c-23.2,2.7-46.8,1.1-71.4,0.7c-6.6-0.1-12-5.6-12-12.2V440.2z"/>
</g>
</svg>
