<?xml version="1.0" encoding="utf-8"?>
<!-- Generator: Adobe Illustrator 26.0.2, SVG Export Plug-In . SVG Version: 6.00 Build 0)  -->
<svg version="1.1" id="Layer_1" xmlns="http://www.w3.org/2000/svg" xmlns:xlink="http://www.w3.org/1999/xlink" x="0px" y="0px"
	 viewBox="0 0 1602 1562" style="enable-background:new 0 0 1602 1562;" xml:space="preserve">
<style type="text/css">
	.st0{fill:none;stroke:#231F20;stroke-width:40;stroke-miterlimit:10;}
	.st1{fill:#231F20;stroke:#231F20;stroke-miterlimit:10;}
</style>
<rect x="1" y="1" class="st0" width="1600" height="1560"/>
<g>
	<path class="st1" d="M1481.3,107.6H120.7c-6.8,0-12.2,5.5-12.2,12.2v1322.5c0,6.7,5.4,12.2,12.2,12.2h1360.6
		c6.7,0,12.2-5.4,12.2-12.2V119.8C1493.5,113.1,1488.1,107.6,1481.3,107.6z M822,665.8c-21.3,85-81.2,132.2-163.7,149.3
		c-40.1,8.3-82.4,6.5-123.7,9.3h-0.1c-6.4,0.4-11.4,5.8-11.4,12.2c0,72.8,0,144.1,0.1,215.4c0,21.6,0,21.6-21.5,21.6
		c-25.2,0.1-50.4-0.3-75.5,0.2c-11.5,0.2-15-4.2-15-15.5c0.3-219.4,0.3-438.9,0.1-658.3c0-10,1.6-17.8,13.4-18.1
		c78.6-1.8,157.5-10.3,235.7,3.4c103.7,18.1,164.1,86.1,169.6,191.2C831.5,606.1,829.2,637.1,822,665.8z M1204.3,963.1
		c-11.9,61.4-52.4,97.1-110.9,112.5c-62.2,16.3-123.5,10.6-183.6-11.7c-13.1-4.8-18.5-12.5-18-26.9c0.8-22.7,0.6-45.4,0.4-70.3
		c0-9.3,9.9-15.2,18.1-10.8c0.9,0.5,1.9,1,2.7,1.3c43.1,22.8,88.6,34.3,137.5,27c21.1-3.2,38.9-12,44.9-35
		c5.9-22.8-4-40.3-21.6-52.6c-20.1-14.1-42-25.5-62.7-38.6c-24.9-15.7-52-29.2-73.5-48.7c-75.8-68.6-56-193.1,37-235.7
		c64.6-29.5,131.1-23.7,197.1-4c5.8,1.7,12.8,11.1,13.1,17.3c1.5,26.2,0.6,52.5,0.7,78.8c0.1,12.6-5.2,13.9-15.3,8.3
		c-30.8-17.1-64.3-23.9-99.2-25c-6.5-0.2-13.1,0-19.6,0.8c-28.4,3.7-46.4,16.6-50.8,37c-5.4,25.2,9.7,40.4,28.3,52.4
		c17.9,11.5,37,21.2,55.3,32c20.7,12.2,42,23.6,61.5,37.5C1199.2,846.9,1216.5,900.2,1204.3,963.1z"/>
	<path class="st1" d="M525.3,490.2c0-7,5.8-12.6,12.8-12.2c32.3,1.6,64.3,1.5,95.2,7.2c50.1,9.3,79.4,45.5,83.4,96.4
		c1.3,16.2,1,33-1.7,49c-9,53.6-44.1,84.7-106.4,92c-23.2,2.7-46.8,1.1-71.4,0.7c-6.6-0.1-12-5.6-12-12.2V490.2H525.3z"/>
</g>
</svg>
