<?xml version="1.0" encoding="utf-8"?>
<!-- Generator: Adobe Illustrator 26.0.2, SVG Export Plug-In . SVG Version: 6.00 Build 0)  -->
<svg version="1.1" id="Layer_1" xmlns="http://www.w3.org/2000/svg" xmlns:xlink="http://www.w3.org/1999/xlink" x="0px" y="0px"
	 viewBox="0 0 1500 529" style="enable-background:new 0 0 1500 529;" xml:space="preserve">
<style type="text/css">
	.st0{fill:#FFFFFF;}
</style>
<path class="st0" d="M24.9,526.6C58,362.1,130.1,222.6,263,118.8c75.1-58.7,158.8-91.4,255.6-79.6c83.5,10.2,159.5,41.9,229.2,88
	c39.2,25.9,75.9,55.7,113,83.2c-11.1,22.5-21.3,12.9-30.7,6.1c-49.7-35.3-102.9-63.4-162.2-78.8C505.3,95.4,353.6,194.4,328,359.9
	c-4.3,27.7-8,55.8-8.2,83.7c-0.2,27.1,4.6,54.3,7.4,83C227.4,526.6,127.7,526.6,24.9,526.6z"/>
<path class="st0" d="M729.3,528.1c-39.5,0-71.8,0.5-104-0.4c-5.6-0.2-11.6-5.3-16.3-9.4c-16.5-14.8-32.5-30.1-50.2-46.7
	c0,17.7,0,35.4,0,54.9c-26.1,0-49.3,0-74.1,0c0-88.4,0-177,0-269.4c20,0,40.4,0,60.8,0c23,0,46-0.1,68.9,0
	c46.4,0.3,83.8,27.9,91.5,68.8c9.4,49.5-4.9,100.8-53.5,115.4c-2,0.6-3.6,2.5-10.2,7.3C670.2,474.2,697.3,498.9,729.3,528.1z
	 M558.6,325.4c0,22.4,0,40.6,0,65.5c27.8,7.1,53.4-0.3,63.2-17c1.1-1.8,8.5-14.9,3.4-29.1c-4.5-12.6-15.9-18-20.7-20.3
	C583.9,314.6,562.8,323.5,558.6,325.4z"/>
<path class="st0" d="M958,527.3c-25.4,0-47.4,0-71.7,0c-0.7-14.7-1.3-29.1-2-44.7c-22.4,0-43.6,0-66.4,0c0,15.1,0,28.9,0,44.2
	c-25,0-48.4,0-73.8,0c-0.4-6.1-1.3-12.5-1.3-18.9c-0.1-57.1-0.2-114.2,0-171.3c0.2-47.9,28.3-76.3,75.4-76.5
	c24.5-0.1,48.9-0.7,73.4,0.3c35.8,1.4,62.1,25.9,65.8,60.3c0.7,6.6,0.5,13.3,0.6,20C958,402.1,958,463.7,958,527.3z M885.2,402.6
	c0-21,1.3-40.3-0.7-59.2c-0.7-6.6-8.9-16.3-15.1-17.7c-11.9-2.7-25.2-2.1-37.2,0.7c-5.7,1.3-13.1,10.3-13.6,16.3
	c-1.7,19.6-0.6,39.5-0.6,60C840.9,402.6,861.4,402.6,885.2,402.6z"/>
<path class="st0" d="M1367.2,328.7c0,12.5,0,20.4,0,30.9c14.9,0,28.8,0,42.6,0c64.8,0,89.6,25.1,89.1,90.5
	c-0.3,40.1-18,65.6-52.6,75.5c-3.5,1-7.2,2.3-10.8,2.3c-42.9,0.2-85.8,0.1-130.2,0.1c0-22.5,0-43.6,0-68.6c40.3,0,80.5,0,121.9,0
	c0-12.4,0-21,0-33.1c-18.4,0-36.7,0.6-54.9-0.1c-35.7-1.4-61.8-21.1-69.7-51.5c-11.1-42.9,0-83.9,28.9-102.2
	c8.5-5.4,18.8-10.9,28.5-11.2c42.1-1.2,84.3-0.5,127.9-0.5c0,22.5,0,43.7,0,68C1448.4,328.7,1408.9,328.7,1367.2,328.7z"/>
<path class="st0" d="M1100.7,261c24.9,0,48.3,0,75.1,0c0,65.5,0,130.2,0,196.5c35.7,0,68.1,0,102.4,0c0,23.4,0,45.2,0,68.9
	c-58.1,0-116.9,0-177.5,0C1100.7,439.2,1100.7,351.4,1100.7,261z"/>
<path class="st0" d="M1066.6,527.5c-25.6,0-49.1,0-74.2,0c0-88.3,0-176,0-265.5c23.8,0,48.3,0,74.2,0
	C1066.6,350,1066.6,437.7,1066.6,527.5z"/>
<path class="st0" d="M19.5,329.2c10,3.3,16.9,5.5,23.7,7.9c6.1,2.2,12.2,4.7,21,8.2c-6.2,15.2-12.2,29.6-19,46.3
	c-14.5-5.3-28-10.2-44.3-16.2C7.2,359.9,13,345.4,19.5,329.2z"/>
<path class="st0" d="M339,453.7c43.8,10.6,44,10.8,46.6,58.3C345.2,509.6,336.6,499.1,339,453.7z"/>
<path class="st0" d="M151.8,152.2c10.3,9.2,17.9,16,26.6,23.7c-8.9,10.8-16.8,20.3-25.8,31.2c-10.1-8.6-19.5-16.5-29.4-24.9
	C133,171.9,142,162.5,151.8,152.2z"/>
<path class="st0" d="M373.7,377.5c-33.1-18-34.5-22.7-18.9-60C384.4,331.1,384.4,331.1,373.7,377.5z"/>
<path class="st0" d="M321.4,63.2c-6.2,4-10.3,7-14.7,9.5c-4.4,2.5-9.1,4.5-15.5,7.6c-5.6-8.3-10.8-16.1-17.6-26.4
	c10.1-5.7,19.4-10.8,30.5-17C309.5,45.4,314.7,53.2,321.4,63.2z"/>
<path class="st0" d="M422.5,208.8c6.2,9.1,11.3,16.8,17,25.3c-7.3,8.8-14.2,17-21.1,25.3C393.5,236.5,393.5,234.5,422.5,208.8z"/>
<path class="st0" d="M616,25.7c35.1,3.4,40.2,8.9,32,33.6C611.2,52,611.2,52,616,25.7z"/>
<path class="st0" d="M491.8,163.2c11.5-4.3,21.6-8,33.7-12.5c3.2,8.9,5.8,16.1,9.1,25.2c-11.4,4.8-21.2,9-33.1,14.1
	C498.2,180.8,495.3,172.9,491.8,163.2z"/>
<path class="st0" d="M612.6,166.3c0.7-8.8,1.2-15.9,1.7-22.7c38.5-0.8,40.1,0.4,34.6,25.9C637.9,168.5,626.6,167.5,612.6,166.3z"/>
<path class="st0" d="M435,2.8c17.7,1.2,39.8-12.6,42,18.9C443.7,29.4,441.5,28.5,435,2.8z"/>
</svg>
