<?xml version="1.0" encoding="utf-8"?>
<!-- Generator: Adobe Illustrator 26.0.2, SVG Export Plug-In . SVG Version: 6.00 Build 0)  -->
<svg version="1.1" id="Layer_1" xmlns="http://www.w3.org/2000/svg" xmlns:xlink="http://www.w3.org/1999/xlink" x="0px" y="0px"
	 viewBox="0 0 1500 1334" style="enable-background:new 0 0 1500 1334;" xml:space="preserve">
<style type="text/css">
	.st0{fill:#FFFFFF;}
</style>
<g>
	<path class="st0" d="M752.8,1170.7c-5.9,5.5-11.4,10.5-17,15.6c-50.5,46.2-105.2,86.5-167.4,115.6c-30,14.1-61.3,24.7-94.3,29.2
		c-27.6,3.7-54.8,2.7-81.2-7.2c-22.3-8.3-40.1-22.3-54.8-40.7c-16.6-20.8-26.9-44.8-34.2-70.1c-6.7-23.3-10.8-47.1-12-71.3
		c-1.1-20.4-1.8-40.8-0.9-61.2c2.2-51.5,10.6-102.2,22.7-152.2c0.5-2.1,1-4.3,1.7-7.1c-3.7-1.3-7.3-2.7-11.1-3.8
		c-46.7-13.8-91.8-31.7-134.9-54.3c-31.3-16.4-61-35.3-88.1-58.2c-24.9-21.1-46.8-44.7-62.4-73.7c-21.9-40.6-24-81.8-3.6-123.7
		c8.6-17.7,20-33.4,33.3-47.9c28-30.7,61.4-54.2,97.4-74.5c42.4-24,87.3-42.4,133.6-57.4c12-3.9,24.1-7.5,36.7-11.4
		c-1.2-5.5-2.3-10.9-3.6-16.2c-8.1-33.4-14-67.2-17.7-101.4c-1.7-15.6-2.4-31.4-3.2-47.1c-0.6-11.1-1.2-22.2-0.8-33.2
		c1.2-38.2,5.4-76,18-112.4c8.3-24,20-46,37.4-64.6c15.3-16.4,34.1-27.5,55.7-33.6c21.3-6,42.8-6.5,64.6-4.1c33,3.6,64,14.1,94,27.7
		c53.3,24.3,101,57.3,145.6,94.9c14.9,12.6,29.4,25.7,44.7,39.1c1.6-1.3,3.7-2.7,5.6-4.5c35.1-33.8,72.6-64.6,113.2-91.4
		c32.7-21.6,66.9-40.2,103.9-53.3c30.8-10.9,62.4-17.5,95.2-14.9c46.6,3.7,80.5,27.7,103.8,67.4c14.5,24.8,23,51.8,28.4,79.8
		c3.8,19.8,6.3,39.8,6.7,60c0.3,14.6,1.2,29.3,0.7,43.9c-1.2,31.4-3.9,62.8-9.5,93.8c-4.1,22.7-9.1,45.2-13.7,67.7
		c-0.2,0.8,0,1.7,0,3.1c1.3,0.5,2.6,1.2,4,1.6c39.4,11.7,78,25.4,115.4,42.4c40.7,18.6,79.5,40.4,114.3,68.8
		c21.8,17.7,41.4,37.6,56.6,61.5c14.8,23.3,24.1,48.5,23.7,76.4c-0.3,18.6-4.9,36.3-12.8,53.2c-11,23.4-26.5,43.4-44.7,61.6
		c-30.4,30.4-65.8,53.8-103.5,74.2c-39.3,21.3-80.7,37.8-122.9,52.1c-8.8,3-17.7,5.6-27.1,8.5c1,4.7,2,9.1,3,13.6
		c7.6,32.8,13.2,66,16.7,99.6c2.8,27,4.2,54,3.3,81c-1.4,40.9-6.7,81.3-21.3,119.9c-9.3,24.5-21.9,47.1-40.9,65.6
		c-20.2,19.7-44.5,31.1-72.4,34.8c-34.5,4.5-67.6-1.6-100.1-12.6c-33.8-11.4-65.3-27.7-95.4-46.7c-36.5-23-70.5-49.4-102.4-78.4
		C770.2,1186.6,761.8,1178.9,752.8,1170.7z M477.3,667c1.5,3.4,3,6.6,4.5,9.8c26.5,54,55.5,106.7,87.2,157.7
		c13.5,21.7,27.7,42.8,41.6,64.3c2.1,3.3,4.5,5.4,9,5.5c9.9,0.2,19.8,1.6,29.8,1.9c21.9,0.8,43.9,1.8,65.8,1.8
		c35.5,0,71-0.5,106.5-1.3c19.7-0.4,39.4-1.8,59.1-2.6c4.5-0.2,7.6-1.7,10.1-5.8c8.8-14.4,18.2-28.4,27.1-42.7
		c37.6-59.7,72-121.3,103.2-184.6c1.7-3.4,1.6-5.9-0.1-9.2c-8.6-16.3-17-32.7-25.6-48.9c-25.2-47.9-52.6-94.6-81.7-140.2
		c-8.2-12.9-16.8-25.6-25.2-38.4c-1.4-2.1-2.8-3.5-5.8-3.7c-13.9-0.7-27.8-1.9-41.8-2.5c-17.9-0.8-35.9-1.8-53.8-1.8
		c-35.3,0.1-70.6,0.5-105.8,1.3c-20.8,0.5-41.6,2.1-62.4,2.9c-3.7,0.1-6.1,1-8.2,4.3c-6.4,10.1-13.5,19.8-19.8,30
		c-14.8,23.7-29.8,47.3-43.9,71.4c-15.1,25.8-29.5,52.1-43.6,78.5C494.4,631.8,486.1,649.5,477.3,667z M333.2,478.1
		c-12.9,4-25.4,7.6-37.8,11.7c-36.2,12-71.6,26.1-105.4,44.1c-24.4,12.9-47.7,27.4-69,45c-16.1,13.3-30.9,28-42.2,45.8
		c-7.1,11.2-12.4,23.1-13.5,36.4c-1.2,14.2,3.1,27.2,9.7,39.5c9,16.8,21.4,30.9,35.1,44c20,19.1,42.4,34.9,66.2,48.9
		c42,24.8,86.7,43.5,133.1,58.4c7.5,2.4,15.1,4.6,22.9,6.9c0.7-1.6,1.3-2.5,1.6-3.6c4.6-14.1,8.8-28.4,14-42.3
		c11.2-30.3,22.7-60.6,34.7-90.7c6.8-17.1,14.7-33.7,22.1-50.5c1.4-3.2,1.8-6.1-0.1-9.4c-2.6-4.6-4.5-9.6-6.7-14.5
		c-17.5-39.3-33.7-79.2-47.7-119.9C344.5,511.8,339,495.4,333.2,478.1z M377.6,936.7c-0.8,3.4-1.5,5.7-2,8.1
		c-4.3,21.1-8.9,42.1-12.7,63.2c-5,27.9-7.4,56.2-8.4,84.6c-0.8,22.6,0.6,45.2,3.7,67.6c3,21.9,8.3,43.1,17.6,63.2
		c13.9,30.1,36.7,46.3,70.6,45.6c15.6-0.4,30.9-2.8,45.9-7c38.9-10.8,74.1-29.2,107.9-50.9c32.6-20.9,62.6-45.1,91.4-70.9
		c5.4-4.9,10.6-10.1,16-15.3c-1.4-1.8-2.3-3.2-3.5-4.5c-11-12.4-22.3-24.7-33.2-37.3c-29.9-34.5-58.1-70.5-84.5-107.8
		c-5-7-10-10.2-18.7-10.8c-23.2-1.8-46.2-4.7-69.3-7.3c-32.6-3.7-64.9-9.3-97-15.6C393.6,940,385.8,938.4,377.6,936.7z M1125.9,934
		c-2.5,0.5-4.4,0.8-6.3,1.1c-26.1,5-52.1,10.5-78.3,15c-37.7,6.5-75.8,10.8-113.9,14.4c-3.3,0.3-5.1,1.5-6.9,4
		c-15,20.9-30,41.8-45.4,62.4c-20.2,27-41.5,53.1-64,78.2c-4.4,4.9-8.6,9.9-13.3,15.3c4.9,4.6,9.4,8.8,13.9,13.1
		c19,18,39.1,34.8,60,50.6c32.5,24.6,66.7,46.3,104.2,62.3c23.4,10,47.4,17.3,73,18.8c29,1.7,52.1-8,67.7-33.4
		c8.5-13.9,14.6-28.8,19.1-44.5c8.8-30.5,10.8-61.9,11.8-93.3c0.2-6.2-0.5-12.4-0.8-18.6c-0.6-12.4-0.8-24.8-2-37.2
		c-2.6-26.5-6.6-52.7-12-78.8C1130.5,953.8,1128.2,944.2,1125.9,934z M705.7,211.6c-6.3-5.9-12.1-11.6-18.2-17
		c-24.9-22.1-50.6-43.1-78.2-61.8c-35-23.8-71.5-44.5-112.1-57.3c-20.4-6.4-41.2-10.7-62.8-8.8c-18.3,1.5-33.7,8.4-45.4,23.1
		c-10,12.5-16.5,26.8-21.2,41.9c-8,25.3-11.6,51.4-12.3,77.8c-0.9,29.9,0.2,59.8,3.9,89.6c4.1,32.3,10,64.3,17.7,96
		c0.4,1.7,1.1,3.2,1.8,5.3c2.5-0.5,4.6-0.9,6.7-1.3c19.3-3.8,38.6-7.9,58-11.3c21.6-3.8,43.2-7.2,65-10.1c21.3-2.9,42.6-4.9,64-7.2
		c3.8-0.4,6.4-1.8,8.8-5c15.3-20.7,30.5-41.4,46.2-61.8c21.7-28,44.6-55.2,68.6-81.3C699.4,218.9,702.3,215.4,705.7,211.6z
		 M1122,401.1c0.6-1.7,1.2-3.1,1.5-4.6c5.7-23.7,10.2-47.7,13.8-71.8c4.7-30.7,6.5-61.6,7.3-92.7c0.1-4.4-0.7-8.8-0.8-13.2
		c-0.1-22-2.7-43.8-7.4-65.3c-4.1-19-10.1-37.3-20.1-54c-6.1-10.2-13.5-19.2-23.8-25.5c-13.9-8.4-29.2-10-44.9-9.1
		c-23.7,1.5-46.1,8.3-67.9,17.4c-36.1,15-69,35.4-100.5,58.3c-26.9,19.6-52,41.4-76.4,64c-2.4,2.2-4.5,4.6-6.8,7
		c2.2,2.7,3.9,4.7,5.6,6.7c18.2,21.2,37.1,41.8,54.4,63.6c21.7,27.2,42.1,55.4,63,83.3c2.2,2.9,4.3,4.6,8,5
		c19.8,2.1,39.6,4.2,59.4,6.7c34.3,4.3,68.3,10.1,102.2,17C1099.7,396.2,1110.7,398.7,1122,401.1z M1094.4,666.1
		c29.4,61.7,55,124.6,75.9,189.5c2.7-0.7,4.6-1.2,6.5-1.8c32-9.9,63.5-21.3,94-35.2c36.6-16.7,71.8-36,103.2-61.4
		c20-16.1,38-33.9,50.7-56.6c12.9-23,13.3-45.9,0.1-68.9c-10.2-18-24-32.9-39.6-46.3c-24.3-21-51.3-37.8-79.8-52.6
		c-41.9-21.7-85.9-38-131-51.6c-2.3-0.7-4.6-1.1-7.3-1.7C1147.3,543.6,1122.6,605.3,1094.4,666.1z M1058,740.7
		c-10.1,18.6-19.4,36-29,53.2c-9.5,17-19.3,33.9-29.1,50.8c-9.8,16.9-20.6,33.2-30.8,51c47.4-5.8,93.1-13.3,139-23.8
		C1093.7,827,1077.1,784,1058,740.7z M394.9,874.6c45.7,9.9,90.8,17,137.6,22.1c-32.2-50.3-61.6-100.9-89.3-154.1
		C424.9,786.5,408.8,829.6,394.9,874.6z M838.9,971.1c-58.7,2.3-117,1.9-176.4-0.3c28.7,37.8,58.2,73.3,90,107.7
		C783.6,1044.3,812.3,1008.6,838.9,971.1z M968.9,439.3c31.8,50.2,60.7,100.3,88.4,152.6c18.3-42.9,34.3-85.2,47.8-128.8
		C1059.9,452.9,1015.3,445.2,968.9,439.3z M836.9,363.6c0.3-0.5,0.5-0.9,0.8-1.4c-27.4-36-55.7-71.3-87-104.7
		c-31.4,34-60.3,68.7-87.2,105.5c5.4,0.4,10.4-0.2,15.3-0.3c17.5-0.5,35-1.3,52.5-1.3c24,0,47.9,0.5,71.9,0.8c1.1,0,2.2,0.2,3.3,0.3
		C816.6,363,826.8,363.3,836.9,363.6z M443.3,591.7c27.3-52.5,56.2-102.5,87.9-152.4c-46.5,5.8-91,13.2-135.4,23.3
		C409.5,506.4,425,548.7,443.3,591.7z"/>
	<path class="st0" d="M883.7,665.8c0.5,73.6-60.5,133.9-133.6,133.8c-71.8-0.1-134.1-57.2-133.9-134.1
		c0.2-77.5,64.2-135.9,138.7-133.4C824.5,534.3,884.2,592.6,883.7,665.8z"/>
</g>
</svg>
