<?xml version="1.0" encoding="utf-8"?>
<!-- Generator: Adobe Illustrator 26.0.2, SVG Export Plug-In . SVG Version: 6.00 Build 0)  -->
<svg version="1.1" id="Layer_1" xmlns="http://www.w3.org/2000/svg" xmlns:xlink="http://www.w3.org/1999/xlink" x="0px" y="0px"
	 viewBox="0 0 1500 1032" style="enable-background:new 0 0 1500 1032;" xml:space="preserve">
<path d="M1467.1,662.5c-41.6-46.8-96.3-69.1-157.1-67.5c-52.3,1.4-104.3,12.6-159.5,19.8c-27.2-39.6-33.5-87.2-21.4-138.1
	c9.4-39.5,0.3-49.2-40.4-45.4c-27.2,2.5-43,12.6-51.3,42.4c-17.7,63.2-55,116.5-95.6,170c-30.6-54.8-22.4-106.7-6.2-157.7
	c-41.1-26.2-87.5-16.2-105.7,24.9c-31.5,71.3-59.2,144.2-90.6,215.5c-11.9,27.2-29.3,51.9-44.2,77.8c-4.4-1.5-8.8-2.9-13.2-4.4
	c2.6-18.9,2.6-38.6,8.3-56.4c8.9-27.9,23.1-54,32.5-81.8c14.6-43.2,1.4-60.3-44.2-59.5c0-6.8,0.2-13.5,0-20.3
	c-1.4-46.5-23.4-67.5-67.2-54c-31.2,9.6-65.1,26.2-86.1,50c-44.5,50.4-103.7,70.8-161.6,95.5c-6.4,2.8-17.4,4.1-22,0.6
	c-66.1-50.9-135-99-195.8-155.7C102.2,477.3,99.7,419,129,367.3c19.6-34.5,46.5-67.9,77.5-92.5c101.1-80.3,217.2-133,340.2-170.7
	C609.2,85,673,75.9,737.7,85.3c46.8,6.8,97.3,14.4,118.7,65.6c21.8,52.2-7.9,93.5-36.6,133.6c-0.7,0.9-1.5,1.7-2.2,2.6
	C749.9,363.4,661,400.2,564.7,422.5c-76.4,17.7-148.4,6.6-218.4-43.5c14.1,58.3,55.4,94.4,116.6,99.7
	c149.8,12.8,280.6-37,395.2-130.3c42.7-34.8,68.4-83.2,80.6-138.3c15.6-70.6-5.7-125-67.9-161.5c-18.3-10.7-38.6-18.9-58.8-25.6
	C712.8-9.4,613.2-3.3,514.1,22.4c-167.6,43.5-315.8,123-438,246.3c-106.3,107.3-99.3,212,19,305.4c39.8,31.4,84,57.3,126.3,85.4
	c23,15.2,46.3,29.9,71.6,46.2c-45.8,24.7-88.2,45.9-129,69.8C117.3,802.9,77.2,837.7,57,889.9c-25.6,66,5.8,128.5,69.2,138.8
	c108.6,17.5,235.6-61.5,258.6-168.6c10-46.6,1.7-97.1,1.7-151.3c17.6-8.9,42-21.3,71.9-36.5c-4,16.7-6.3,26.4-8.5,36.1
	c-11.7,51.8-14.5,103.1,9.9,152.6c26.8,54.4,80.4,58.3,113.8,7.3c15.8-24.2,28.7-50.3,44.1-77.8c2.3,23.1,2.2,42.5,6.5,60.9
	c7.8,33.7,32.8,43,61.3,23.5c12-8.2,25-17.7,32.2-29.7c31.5-52,62.1-104.5,90.7-158.1c15.8-29.5,27-61.3,41.8-95.5
	c12.4,31.8,19.8,60.7,34.3,85.5c14.9,25.6,6.9,39.6-11.5,57.7c-28,27.7-55.2,56.8-78.1,88.7c-16.3,22.8-6.6,37.2,21.3,41.8
	c88.4,14.6,168.2-55.1,161.3-142.4c-5.5-70.7,31.8-120.5,74.2-172.1c14.9,38.4,27.8,71.6,42.5,109.5c-18,16.9-41.4,32.8-56.5,54.5
	c-14,20.2-22.7,46-27,70.5c-4,22.4,11.5,34.9,35.3,34.7c85.8-0.6,146-74.2,128.9-157.8c-0.4-1.9,1-4.2,2.3-9
	c80.8-23,161.6-26,238.2,17.1c57.2,32.2,79.1,104.6,11.2,143.6c-2.5,1.5-3.7,5.3-10.2,14.8c16.2-5.3,27-6.9,35.8-12
	C1508.1,785.1,1514.9,716.3,1467.1,662.5z M174.6,960.6c-25.7-0.2-44.4-12.8-38.7-38.9c5.8-26.4,16.5-53.8,32.4-75.4
	c31.5-42.9,98.7-83.7,153.2-100.8C367.9,851.6,254,961.1,174.6,960.6z M528,825.6c-49.5-66.9,15.8-250.2,100.5-243.2
	C636.7,647,578.6,789.5,528,825.6z M842.2,827.2c21.4-23,42.8-46.1,64.2-69.1C900.4,795.5,879.2,818.7,842.2,827.2z M1053.2,784.1
	c-2.6-43.7,26.5-65.7,57.4-93.4C1119.7,744.9,1102.4,772.2,1053.2,784.1z"/>
</svg>
